<svg width="390" height="390" viewBox="0 0 390 390" fill="none" xmlns="http://www.w3.org/2000/svg">
<path d="M174.09 12.8225C186.92 4.95491 203.08 4.95491 215.91 12.8225L246.075 31.3203C250.66 34.132 255.766 35.9901 261.085 36.7835L296.083 42.0031C310.969 44.2232 323.348 54.6109 328.12 68.8848L339.337 102.445C341.042 107.546 343.759 112.251 347.324 116.278L370.779 142.773C380.755 154.042 383.561 169.956 378.041 183.958L365.062 216.877C363.089 221.88 362.146 227.231 362.288 232.607L363.225 267.98C363.624 283.025 355.544 297.02 342.315 304.198L311.213 321.072C306.486 323.637 302.324 327.129 298.977 331.34L276.958 359.039C267.592 370.82 252.406 376.348 237.659 373.343L202.987 366.277C197.716 365.203 192.284 365.203 187.013 366.277L152.341 373.343C137.594 376.348 122.408 370.82 113.042 359.039L91.0231 331.34C87.6761 327.129 83.5145 323.637 78.7869 321.072L47.6848 304.198C34.4562 297.02 26.376 283.025 26.7746 267.98L27.7115 232.607C27.854 227.231 26.9106 221.88 24.9378 216.877L11.9592 183.958C6.43902 169.956 9.24523 154.042 19.2213 142.773L42.6761 116.278C46.2413 112.251 48.9576 107.546 50.6627 102.445L61.8804 68.8848C66.6516 54.6109 79.0311 44.2232 93.9168 42.0031L128.915 36.7835C134.234 35.9901 139.34 34.132 143.925 31.3203L174.09 12.8225Z" fill="black"/>
<path d="M281.843 95H108.458C100.946 95 95 100.938 95 108.438V281.25C95 289.062 100.946 295 108.458 295H281.53C289.042 295 294.988 289.063 294.988 281.563V108.438C295.301 100.938 289.355 95 281.843 95ZM289.042 281.563C289.042 285.625 285.912 288.75 281.843 288.75H108.458C104.389 288.75 101.259 285.625 101.259 281.563V108.438C101.259 104.375 104.389 101.25 108.458 101.25H281.53C285.912 101.25 289.042 104.375 289.042 108.438V281.563Z" fill="#FFA400"/>
<path d="M277.46 109.668C107.204 109.668 288.414 109.668 113.151 109.668C111.273 109.668 110.021 110.918 110.021 112.793V276.856C110.021 278.731 111.273 279.981 113.151 279.981H277.46C279.338 279.981 280.59 278.731 280.59 276.856V112.793C280.59 111.231 279.025 109.668 277.46 109.668ZM212.675 144.356C214.24 144.356 215.492 145.606 215.492 147.168C215.492 148.731 214.24 149.981 212.675 149.981C211.11 149.981 209.859 148.731 209.859 147.168C209.859 145.606 211.11 144.356 212.675 144.356ZM179.5 144.356C181.065 144.356 182.317 145.606 182.317 147.168C182.317 148.731 181.065 149.981 179.5 149.981C177.936 149.981 176.684 148.731 176.684 147.168C176.684 145.606 177.936 144.356 179.5 144.356ZM152.898 115.918V151.543H141.944C140.692 148.106 137.249 145.606 133.494 145.606C128.486 145.606 124.418 149.668 124.418 154.668C124.418 159.668 128.486 163.731 133.494 163.731C137.249 163.731 140.692 161.231 141.944 157.793H156.028C157.905 157.793 159.157 156.543 159.157 154.668V115.918H176.371V138.731C172.928 139.981 170.424 143.418 170.424 147.168C170.424 152.168 174.493 156.231 179.5 156.231C184.508 156.231 188.577 152.168 188.577 147.168C188.577 143.418 186.073 139.981 182.63 138.731V115.918H209.546V138.731C206.103 139.981 203.599 143.418 203.599 147.168C203.599 152.168 207.668 156.231 212.675 156.231C217.683 156.231 221.751 152.168 221.751 147.168C221.751 143.418 219.248 139.981 215.805 138.731V115.918H231.766V154.668C231.766 156.543 233.018 157.793 234.896 157.793H249.919C251.171 161.231 254.613 163.731 258.369 163.731C263.376 163.731 267.445 159.668 267.445 154.668C267.445 149.668 263.376 145.606 258.369 145.606C254.613 145.606 251.171 148.106 249.919 151.543H238.026V115.918H274.33V182.793H216.118C215.492 182.793 214.553 183.106 214.24 183.418L192.958 200.918L168.546 183.418C167.92 183.106 167.295 182.793 166.669 182.793H115.967V115.918H152.898ZM136.31 154.668C136.31 156.231 135.059 157.481 133.494 157.481C131.929 157.481 130.677 156.231 130.677 154.668C130.677 153.106 131.929 151.856 133.494 151.856C135.059 151.856 136.31 153.106 136.31 154.668ZM255.552 154.668C255.552 153.106 256.804 151.856 258.369 151.856C259.934 151.856 261.186 153.106 261.186 154.668C261.186 156.231 259.621 157.481 258.056 157.481C256.491 157.481 255.552 156.231 255.552 154.668ZM179.5 248.731C177.936 248.731 176.684 247.481 176.684 245.918C176.684 244.356 177.936 243.106 179.5 243.106C181.065 243.106 182.317 244.356 182.317 245.918C182.317 247.481 180.752 248.731 179.5 248.731ZM212.675 248.731C211.11 248.731 209.859 247.481 209.859 245.918C209.859 244.356 211.11 243.106 212.675 243.106C214.24 243.106 215.492 244.356 215.492 245.918C215.492 247.481 213.927 248.731 212.675 248.731ZM215.805 274.043V254.356C219.248 253.106 221.751 249.668 221.751 245.918C221.751 240.918 217.683 236.856 212.675 236.856C207.668 236.856 203.599 240.918 203.599 245.918C203.599 249.668 206.103 253.106 209.546 254.356V273.731H182.63V254.356C186.073 253.106 188.577 249.668 188.577 245.918C188.577 240.918 184.508 236.856 179.5 236.856C174.493 236.856 170.424 240.918 170.424 245.918C170.424 249.668 172.928 253.106 176.371 254.356V273.731H115.967V189.043H165.417L187.638 204.981L154.463 232.168H135.685C134.433 228.731 130.99 226.231 127.234 226.231C122.227 226.231 118.158 230.293 118.158 235.293C118.158 240.293 122.227 244.356 127.234 244.356C130.99 244.356 134.433 241.856 135.685 238.418H156.028C156.341 238.418 156.654 238.418 157.279 238.106H157.592C157.905 238.106 157.905 237.793 158.218 237.793L193.584 208.731L233.957 237.793C233.957 237.793 234.27 237.793 234.27 238.106H234.583C234.896 238.106 235.209 238.418 235.835 238.418H256.491C257.743 241.856 261.186 244.356 264.941 244.356C269.949 244.356 274.017 240.293 274.017 235.293C274.017 230.293 269.949 226.231 264.941 226.231C261.186 226.231 257.743 228.731 256.491 232.168H236.774L198.279 204.668L217.37 189.043H274.33V274.043H215.805ZM130.051 235.293C130.051 236.856 128.799 238.106 127.234 238.106C125.669 238.106 124.418 236.856 124.418 235.293C124.418 233.731 125.669 232.481 127.234 232.481C128.799 232.481 130.051 233.731 130.051 235.293ZM261.812 235.293C261.812 233.731 263.064 232.481 264.628 232.481C266.193 232.481 267.445 233.731 267.445 235.293C267.445 236.856 266.193 238.106 264.628 238.106C263.064 238.106 261.812 236.856 261.812 235.293Z" fill="#FFA400"/>
</svg>
